<?xml version="1.0" encoding="utf-8"?>
<!-- Generator: Adobe Illustrator 16.0.3, SVG Export Plug-In . SVG Version: 6.00 Build 0)  -->
<!DOCTYPE svg PUBLIC "-//W3C//DTD SVG 1.1//EN" "http://www.w3.org/Graphics/SVG/1.1/DTD/svg11.dtd">
<svg version="1.1" id="svg4232" xmlns:svg="http://www.w3.org/2000/svg"
	 xmlns="http://www.w3.org/2000/svg" xmlns:xlink="http://www.w3.org/1999/xlink" x="0px" y="0px" width="539.333px"
	 height="224.114px" viewBox="1 1 539.333 224.114" enable-background="new 1 1 539.333 224.114" xml:space="preserve">
<g id="layer1" transform="translate(-129.33351,-393.59072)">
	<path id="path84" fill="#868686" d="M271.089,441.054v36.897c0,1.837-1.58,4.865-3.417,6.696l-37.58,37.58
		c-0.918,0.919-1.859,1.366-2.46,1.366s-0.957-0.447-0.957-1.366v4.101c0,1.836,1.58,3.416,3.417,3.416h81.856
		c1.837,0,3.417-1.58,3.417-3.416v-81.994c0-1.837-1.58-3.28-3.417-3.28H271.089z M219.023,526.328c0,1.836-1.585,3.416-3.417,3.416
		h-40.86v44.549c0,0.919,0.361,1.367,0.957,1.367s1.405-0.448,2.323-1.367l37.58-37.58c1.832-1.836,3.417-4.859,3.417-6.695V526.328
		L219.023,526.328z"/>
	<path id="path88" fill="#474747" d="M270.132,394.591c-0.604,0-1.542,0.448-2.46,1.367l-37.58,37.717
		c-1.832,1.831-3.417,4.723-3.417,6.56v4.1v77.894c0,1.837,1.585,1.837,3.417,0l37.58-37.58c1.837-1.836,3.417-4.859,3.417-6.696
		v-36.897v-45.096C271.089,395.039,270.736,394.591,270.132,394.591z M133.75,441.054c-1.837,0-3.417,1.443-3.417,3.28v81.994
		c0,1.836,1.58,3.416,3.417,3.416h81.856c1.837,0,3.417-1.58,3.417-3.416v-81.994c0-1.837-1.58-3.28-3.417-3.28H133.75z"/>
	<path id="path100" fill="#363636" d="M230.092,441.054c-1.837,0-3.417,1.58-3.417,3.417v77.757c0,0.919,0.355,1.366,0.957,1.366
		c0.602,0,1.542-0.447,2.46-1.366l37.58-37.58c1.837-1.836,3.417-4.865,3.417-6.696v-36.897H230.092z M218.066,446.657
		c-0.607,0-1.542,0.454-2.46,1.366l-37.58,37.717c-1.831,1.87-3.28,4.728-3.28,6.56v37.444h40.86c1.837,0,3.417-1.58,3.417-3.416
		v-78.304C219.023,447.11,218.667,446.657,218.066,446.657L218.066,446.657z"/>
	<path id="path238" fill="#666666" d="M523.082,441.19c-0.629,0-1.203,0.147-1.641,0.546c-0.447,0.405-0.683,0.88-0.683,1.503v84.18
		c0,0.618,0.235,1.191,0.683,1.64c0.438,0.426,1.012,0.684,1.641,0.684h20.225c4.149,0,8.172-0.629,11.889-1.777
		c3.719-1.164,6.916-2.766,9.703-4.919c2.793-2.181,4.969-4.87,6.561-8.063c1.59-3.186,2.459-6.816,2.459-10.795
		c0-2.75-0.477-5.357-1.504-7.789c-1.016-2.438-2.377-4.57-4.1-6.423c-1.732-1.864-3.754-3.313-6.012-4.51
		c-2.252-1.197-4.641-2.017-7.107-2.46c1.771-0.53,3.555-1.399,5.467-2.596c1.908-1.192,3.734-2.646,5.33-4.373
		s2.902-3.711,3.963-5.876c1.066-2.17,1.641-4.45,1.641-6.833c0-3.81-0.717-7.063-2.188-9.839c-1.471-2.793-3.428-5.154-5.877-6.969
		c-2.438-1.81-5.242-3.214-8.473-4.1c-3.234-0.88-6.646-1.23-10.111-1.23H523.082L523.082,441.19z M584.441,441.19
		c-0.619,0-1.1,0.153-1.504,0.546c-0.389,0.399-0.453,0.886-0.273,1.503l16.945,84.18c0.18,0.606,0.607,1.191,1.094,1.64
		c0.486,0.432,1.027,0.684,1.639,0.684h6.697c0.623,0,1.152-0.252,1.639-0.684c0.477-0.448,0.777-1.033,0.957-1.64l14.486-74.204
		l14.621,74.204c0.176,0.606,0.471,1.191,0.957,1.64c0.486,0.432,1.027,0.684,1.641,0.684h6.695c0.629,0,1.191-0.252,1.641-0.684
		c0.447-0.448,0.775-1.033,0.955-1.64l16.945-84.18c0.188-0.618,0.078-1.104-0.271-1.503c-0.367-0.394-0.756-0.546-1.367-0.546
		h-5.33c-1.328,0-2.246,0.634-2.596,2.05l-13.119,74.341L632.27,443.24c-0.355-1.416-1.115-2.05-2.459-2.05h-6.697
		c-1.41,0-2.252,0.634-2.596,2.05l-14.486,74.341l-13.254-74.341c-0.361-1.416-1.324-2.05-2.734-2.05H584.441L584.441,441.19z
		 M530.461,448.98h14.486c4.975,0,9.047,1.312,12.162,3.963c3.1,2.651,4.646,6.281,4.646,10.796c0,2.301-0.535,4.346-1.504,6.286
		c-0.984,1.946-2.225,3.651-3.826,5.056c-1.59,1.421-3.432,2.481-5.467,3.28c-2.043,0.804-4.214,1.23-6.422,1.23h-14.076V448.98
		L530.461,448.98z M530.461,487.244h14.486c5.592,0,10.15,1.541,13.666,4.509c3.492,2.963,5.191,6.888,5.191,12.026
		c0,2.662-0.383,5.16-1.365,7.379c-0.979,2.209-2.367,4.149-4.1,5.74c-1.729,1.596-3.707,2.804-6.014,3.689
		c-2.307,0.896-4.811,1.367-7.379,1.367h-14.486V487.244L530.461,487.244z M412.938,549.968v20.225c0,0.541,0.031,1.143,0.137,1.641
		c0.098,0.497,0.289,0.853,0.547,1.229c0.256,0.366,0.666,0.738,1.093,0.957c0.427,0.224,0.968,0.272,1.64,0.272
		c0.339,0,0.689-0.021,1.094-0.136c0.404-0.109,0.661-0.301,0.82-0.409l-0.684-1.914l-0.547,0.41l-0.547,0.137
		c-0.426,0-0.781-0.263-0.957-0.684c-0.18-0.432-0.273-0.94-0.273-1.641v-20.088H412.938L412.938,549.968z M500.807,549.968v23.915
		h2.324V561.72l0.409-0.819l0.819-1.093c0.367-0.346,0.887-0.705,1.367-0.957c0.48-0.263,0.967-0.41,1.504-0.41
		c0.541,0,0.95,0.164,1.365,0.41c0.416,0.246,0.826,0.563,1.094,0.957c0.273,0.388,0.399,0.885,0.547,1.366
		c0.146,0.486,0.273,0.913,0.273,1.366v11.343h2.322v-11.616c0-0.693-0.049-1.366-0.273-2.05c-0.223-0.688-0.655-1.366-1.092-1.913
		c-0.432-0.535-0.969-0.907-1.641-1.23c-0.672-0.327-1.427-0.546-2.323-0.546c-0.585,0-1.137,0.175-1.64,0.409
		c-0.503,0.241-0.979,0.504-1.367,0.82c-0.393,0.312-0.721,0.656-0.956,0.957l-0.409,0.684v-9.43H500.807L500.807,549.968z
		 M547.543,549.968v23.915h2.324V561.72l0.408-0.819l0.82-1.093c0.373-0.346,0.744-0.705,1.23-0.957
		c0.48-0.263,1.104-0.41,1.641-0.41c0.541,0,0.945,0.164,1.365,0.41c0.416,0.246,0.826,0.563,1.094,0.957
		c0.268,0.388,0.398,0.885,0.547,1.366c0.143,0.486,0.273,0.913,0.273,1.366v11.343h2.322v-11.616c0-0.693-0.18-1.366-0.408-2.05
		c-0.219-0.688-0.516-1.366-0.957-1.913c-0.438-0.535-0.969-0.907-1.641-1.23c-0.672-0.327-1.416-0.546-2.322-0.546
		c-0.58,0-1.137,0.175-1.641,0.409c-0.502,0.241-0.979,0.504-1.367,0.82c-0.393,0.312-0.721,0.656-0.955,0.957l-0.41,0.684v-9.43
		H547.543L547.543,549.968z M582.801,549.968v20.225c0,0.541,0.025,1.143,0.137,1.641c0.092,0.497,0.283,0.853,0.547,1.229
		c0.256,0.366,0.529,0.738,0.955,0.957c0.428,0.224,0.969,0.272,1.641,0.272c0.334,0,0.82-0.021,1.23-0.136
		c0.398-0.109,0.666-0.301,0.82-0.409l-0.684-1.914l-0.547,0.41l-0.684,0.137c-0.42,0-0.645-0.263-0.82-0.684
		c-0.186-0.432-0.273-0.94-0.273-1.641v-20.088H582.801L582.801,549.968z M359.642,551.472v22.411h5.33
		c1.394,0,2.635-0.345,3.827-0.956c1.191-0.602,2.279-1.411,3.143-2.461c0.863-1.055,1.552-2.257,2.05-3.689
		c0.492-1.426,0.683-3.006,0.683-4.646c0-1.684-0.306-3.181-0.82-4.51c-0.52-1.328-1.131-2.355-2.05-3.279
		c-0.918-0.918-2.034-1.694-3.28-2.187c-1.247-0.491-2.662-0.683-4.1-0.683H359.642z M448.468,551.472v22.411h2.46v-10.659h9.156
		v10.659h2.459v-22.411h-2.459v9.702h-9.156v-9.702H448.468z M362.102,553.384h2.733c0.968,0,1.842,0.279,2.733,0.684
		c0.885,0.404,1.651,0.881,2.323,1.641c0.672,0.748,1.235,1.65,1.64,2.732s0.683,2.318,0.683,3.689c0,1.372-0.175,2.646-0.546,3.826
		c-0.367,1.182-0.989,2.27-1.64,3.144c-0.651,0.88-1.433,1.542-2.323,2.05c-0.886,0.503-1.722,0.82-2.733,0.82h-2.87V553.384
		L362.102,553.384z M401.459,556.528c-0.591,0-1.203,0.142-1.777,0.273c-0.574,0.136-1.165,0.235-1.64,0.409
		c-0.47,0.187-0.754,0.389-1.093,0.547l-0.683,0.273l0.683,1.913l0.683-0.409c0.323-0.17,0.689-0.24,1.093-0.41
		c0.405-0.164,0.782-0.41,1.23-0.547c0.454-0.131,0.875-0.137,1.23-0.137c1.213,0,2.137,0.34,2.732,1.094
		c0.59,0.749,0.82,1.635,0.82,2.732v1.094l-3.279,0.82c-0.656,0.125-1.296,0.365-2.05,0.684c-0.749,0.311-1.542,0.634-2.187,1.093
		c-0.64,0.442-1.093,1.033-1.503,1.64c-0.42,0.607-0.683,1.197-0.683,1.914c0,1.508,0.552,2.717,1.503,3.553
		c0.957,0.83,2.208,1.229,3.69,1.229c0.629,0,1.088-0.039,1.64-0.273c0.552-0.235,1.077-0.645,1.503-0.956
		c0.427-0.317,0.837-0.509,1.094-0.82l0.41-0.684v2.323h2.186v-11.615c0-1.837-0.48-3.286-1.503-4.236
		C404.535,557.075,403.164,556.529,401.459,556.528L401.459,556.528z M427.423,556.528c-1.032,0-1.956,0.399-2.733,0.956
		c-0.775,0.568-1.383,1.209-1.912,2.051c-0.525,0.842-0.963,1.749-1.23,2.732c-0.273,0.99-0.41,1.908-0.41,2.733
		c0,1.055,0.072,2.187,0.273,3.28c0.202,1.087,0.59,2.093,1.094,3.006c0.508,0.907,1.197,1.618,2.049,2.187
		c0.854,0.579,1.952,0.819,3.28,0.819c0.629,0,1.202-0.035,1.776-0.136c0.574-0.099,1.182-0.279,1.641-0.41
		c0.459-0.136,0.771-0.272,1.093-0.409l0.683-0.273l-0.683-1.914l-0.684,0.41c-0.295,0.147-0.705,0.273-1.093,0.41
		c-0.395,0.131-0.766,0.175-1.23,0.273c-0.459,0.104-0.896,0.273-1.366,0.273c-0.787,0-1.487-0.246-2.05-0.684
		s-1.006-0.979-1.367-1.641c-0.36-0.666-0.65-1.421-0.819-2.186c-0.169-0.76-0.273-1.515-0.273-2.188h10.112V565
		c0-0.892-0.061-1.88-0.273-2.87c-0.219-0.989-0.611-1.896-1.093-2.732c-0.487-0.826-1.132-1.509-1.913-2.051
		C429.5,556.812,428.57,556.528,427.423,556.528z M474.569,556.528c-1.187,0-2.159,0.36-3.007,0.956
		c-0.842,0.596-1.514,1.323-2.049,2.188c-0.542,0.869-0.99,1.766-1.23,2.732c-0.252,0.968-0.41,1.837-0.41,2.597
		c0,0.946,0.197,1.913,0.41,3.007c0.213,1.088,0.59,2.088,1.094,3.006c0.508,0.918,1.186,1.705,2.049,2.323
		c0.869,0.612,1.864,0.956,3.144,0.956c1.235,0,2.29-0.344,3.144-0.956c0.852-0.618,1.529-1.389,2.049-2.323
		s0.859-1.913,1.094-3.006c0.234-1.088,0.41-2.083,0.41-3.007c0-0.782-0.05-1.624-0.273-2.597c-0.23-0.979-0.705-1.881-1.23-2.732
		c-0.514-0.859-1.197-1.607-2.05-2.188C476.859,556.9,475.826,556.528,474.569,556.528L474.569,556.528z M491.924,556.528
		c-1.027,0-1.912,0.29-2.732,0.819c-0.82,0.525-1.481,1.236-2.05,2.051c-0.579,0.803-1.05,1.738-1.366,2.732
		c-0.317,1-0.547,1.924-0.547,2.87c0,1.147,0.175,2.307,0.41,3.417c0.234,1.114,0.578,2.131,1.093,3.006
		c0.519,0.875,1.208,1.509,2.05,2.05c0.842,0.536,1.924,0.819,3.143,0.819c0.559,0,1.121-0.025,1.641-0.136
		c0.52-0.099,0.951-0.273,1.366-0.409c0.415-0.137,0.678-0.273,0.956-0.41l0.684-0.273l-0.82-1.913l-0.546,0.409l-0.956,0.41
		c-0.351,0.131-0.711,0.186-1.094,0.273c-0.383,0.092-0.732,0.137-1.094,0.137c-0.76,0-1.503-0.241-2.049-0.684
		c-0.553-0.438-1.018-0.94-1.367-1.641c-0.35-0.688-0.525-1.574-0.684-2.459c-0.158-0.886-0.273-1.723-0.273-2.597
		c0-0.716,0.077-1.427,0.273-2.187c0.186-0.766,0.459-1.547,0.82-2.187s0.842-1.099,1.367-1.503
		c0.529-0.399,1.104-0.684,1.775-0.684l1.094,0.137l0.957,0.409l0.956,0.41l0.409,0.272l0.82-1.912l-0.547-0.41l-0.956-0.273
		c-0.378-0.12-0.755-0.316-1.229-0.41C492.957,556.577,492.422,556.528,491.924,556.528L491.924,556.528z M523.219,556.528
		c-0.744,0-1.399,0.164-2.05,0.409c-0.656,0.252-1.274,0.646-1.776,1.094c-0.509,0.448-0.94,1.012-1.23,1.641
		c-0.295,0.628-0.41,1.306-0.41,2.049c0,0.694,0.159,1.258,0.547,1.777c0.395,0.519,0.908,0.939,1.504,1.366
		s1.219,0.863,1.913,1.229c0.7,0.377,1.317,0.722,1.913,1.094c0.596,0.371,1.109,0.836,1.504,1.229
		c0.393,0.394,0.683,0.738,0.683,1.229c0,0.881-0.317,1.559-0.956,2.051c-0.641,0.497-1.465,0.82-2.324,0.82
		c-0.404,0-0.874-0.022-1.366-0.137c-0.497-0.109-0.929-0.285-1.366-0.41c-0.438-0.143-0.76-0.262-1.094-0.41l-0.684-0.409
		l-0.82,1.913l0.82,0.41c0.328,0.137,0.646,0.273,1.094,0.409c0.443,0.137,1.061,0.181,1.64,0.273
		c0.569,0.088,1.104,0.137,1.776,0.137c0.766,0,1.498-0.164,2.188-0.41c0.688-0.246,1.273-0.509,1.775-0.956
		c0.509-0.454,0.94-1.022,1.23-1.641c0.289-0.617,0.41-1.328,0.41-2.049c0-0.629-0.143-1.138-0.547-1.641
		c-0.404-0.508-0.908-0.939-1.504-1.366c-0.59-0.427-1.202-0.858-1.912-1.229c-0.711-0.367-1.455-0.706-2.051-1.094
		c-0.59-0.377-1.104-0.804-1.503-1.23c-0.405-0.426-0.547-0.869-0.547-1.366c0-0.88,0.345-1.656,0.956-2.187
		c0.602-0.53,1.329-0.82,2.188-0.82l0.957,0.137l1.092,0.41l0.82,0.409l0.547,0.273l0.684-1.776l-0.547-0.41
		c-0.268-0.12-0.574-0.164-0.957-0.273s-0.77-0.322-1.229-0.409C524.126,556.572,523.672,556.528,523.219,556.528L523.219,556.528z
		 M538.66,556.528c-1.033,0-1.912,0.29-2.732,0.819c-0.82,0.525-1.613,1.236-2.187,2.051c-0.573,0.803-0.913,1.738-1.229,2.732
		c-0.317,1-0.547,1.924-0.547,2.87c0,1.147,0.175,2.307,0.41,3.417c0.234,1.114,0.573,2.131,1.093,3.006
		c0.514,0.875,1.208,1.509,2.05,2.05c0.842,0.536,1.793,0.819,3.006,0.819c0.559,0,1.121-0.025,1.641-0.136
		c0.52-0.099,1.088-0.273,1.503-0.409c0.415-0.137,0.673-0.273,0.956-0.41l0.547-0.273l-0.683-1.913l-0.683,0.409l-0.82,0.41
		c-0.35,0.131-0.711,0.186-1.094,0.273c-0.383,0.092-0.863,0.137-1.23,0.137c-0.76,0-1.36-0.241-1.912-0.684
		c-0.553-0.438-1.018-0.94-1.367-1.641c-0.35-0.688-0.529-1.574-0.684-2.459c-0.158-0.886-0.273-1.723-0.273-2.597
		c0-0.716,0.083-1.427,0.273-2.187c0.191-0.766,0.459-1.547,0.82-2.187s0.842-1.099,1.367-1.503
		c0.524-0.399,1.098-0.684,1.775-0.684l0.957,0.137l1.094,0.409l0.957,0.41l0.409,0.272l0.683-1.912l-0.409-0.41l-0.956-0.273
		c-0.367-0.12-0.755-0.316-1.23-0.41C539.693,556.577,539.152,556.528,538.66,556.528L538.66,556.528z M597.014,556.528
		c-1.033,0-1.963,0.399-2.734,0.956c-0.781,0.568-1.383,1.209-1.912,2.051c-0.525,0.842-0.963,1.749-1.23,2.732
		c-0.268,0.99-0.41,1.908-0.41,2.733c0,1.055,0.203,2.187,0.41,3.28c0.191,1.087,0.453,2.093,0.957,3.006
		c0.508,0.907,1.197,1.618,2.049,2.187c0.854,0.579,1.951,0.819,3.279,0.819c0.635,0,1.209-0.035,1.777-0.136
		c0.574-0.099,1.182-0.279,1.641-0.41c0.465-0.136,0.764-0.272,1.092-0.409l0.684-0.273l-0.684-1.914l-0.682,0.41
		c-0.291,0.147-0.564,0.273-0.957,0.41c-0.395,0.131-0.908,0.175-1.367,0.273c-0.465,0.104-0.891,0.273-1.367,0.273
		c-0.787,0-1.486-0.246-2.049-0.684s-1.006-0.979-1.367-1.641c-0.361-0.666-0.65-1.421-0.82-2.186
		c-0.164-0.76-0.273-1.515-0.273-2.188h10.113V565c0-0.892-0.061-1.88-0.273-2.87c-0.207-0.989-0.607-1.896-1.094-2.732
		c-0.48-0.826-1.125-1.509-1.912-2.051C599.096,556.812,598.16,556.528,597.014,556.528L597.014,556.528z M378.637,556.937v11.616
		c0,0.743,0.208,1.492,0.41,2.187c0.202,0.699,0.53,1.252,0.957,1.776c0.426,0.53,0.979,1.044,1.64,1.366
		c0.662,0.328,1.399,0.41,2.323,0.41c0.606,0,1.131-0.164,1.64-0.41c0.503-0.251,0.984-0.508,1.367-0.819
		c0.383-0.317,0.722-0.646,0.957-0.956l0.41-0.547v2.322h2.187v-16.945h-2.323v12.299l-0.41,0.684l-0.82,1.094
		c-0.361,0.361-0.76,0.672-1.23,0.957c-0.476,0.283-0.962,0.409-1.503,0.409c-0.585,0-1.099-0.175-1.503-0.409
		c-0.404-0.236-0.71-0.449-0.957-0.82c-0.246-0.372-0.42-0.886-0.546-1.367c-0.12-0.486-0.273-0.983-0.273-1.503v-11.343H378.637z
		 M565.172,556.937v11.616c0,0.743,0.072,1.492,0.273,2.187c0.201,0.699,0.525,1.252,0.957,1.776c0.42,0.53,0.973,1.044,1.639,1.366
		c0.662,0.328,1.406,0.41,2.324,0.41c0.607,0,1.268-0.164,1.775-0.41c0.504-0.251,0.854-0.508,1.23-0.819
		c0.383-0.317,0.723-0.646,0.957-0.956l0.547-0.547v2.322h2.186v-16.945h-2.322v12.299l-0.41,0.684l-0.82,1.094
		c-0.359,0.361-0.754,0.672-1.229,0.957c-0.471,0.283-1.094,0.409-1.641,0.409c-0.58,0-0.967-0.175-1.367-0.409
		c-0.408-0.236-0.842-0.449-1.092-0.82c-0.246-0.372-0.428-0.886-0.547-1.367c-0.127-0.486-0.137-0.983-0.137-1.503v-11.343H565.172
		L565.172,556.937z M427.423,558.441c0.7,0,1.279,0.131,1.776,0.547c0.498,0.42,0.93,0.918,1.23,1.503s0.535,1.241,0.684,1.913
		c0.146,0.672,0.273,1.279,0.273,1.776h-7.79c0-0.563,0.104-1.251,0.273-1.913c0.163-0.667,0.366-1.191,0.683-1.776
		c0.317-0.591,0.732-1.11,1.23-1.503C426.275,558.599,426.772,558.441,427.423,558.441L427.423,558.441z M474.569,558.441
		c0.81,0,1.515,0.35,2.05,0.82c0.541,0.47,1.027,0.961,1.367,1.64c0.327,0.672,0.546,1.442,0.683,2.187
		c0.132,0.743,0.136,1.35,0.136,1.913c0,0.673-0.018,1.465-0.136,2.323c-0.12,0.853-0.355,1.563-0.683,2.322
		c-0.323,0.75-0.814,1.405-1.367,1.914c-0.553,0.524-1.219,0.82-2.05,0.82c-0.853,0-1.498-0.296-2.05-0.82
		c-0.553-0.509-1.055-1.164-1.367-1.914c-0.316-0.76-0.42-1.47-0.547-2.322c-0.125-0.858-0.272-1.651-0.272-2.323
		c0-0.602,0.126-1.302,0.272-2.05c0.148-0.754,0.346-1.383,0.684-2.05c0.334-0.656,0.826-1.329,1.367-1.776
		C473.197,558.675,473.782,558.441,474.569,558.441z M597.15,558.441c0.688,0,1.277,0.131,1.775,0.547
		c0.486,0.42,0.781,0.918,1.094,1.503c0.301,0.585,0.535,1.241,0.684,1.913c0.141,0.672,0.273,1.279,0.273,1.776h-7.791
		c0-0.563,0.105-1.251,0.273-1.913c0.17-0.667,0.373-1.191,0.684-1.776c0.318-0.591,0.732-1.11,1.23-1.503
		C595.871,558.599,596.5,558.441,597.15,558.441L597.15,558.441z M404.738,565.136v4.101l-0.547,1.093
		c-0.268,0.372-0.563,0.771-0.957,1.094c-0.393,0.328-0.885,0.465-1.365,0.684c-0.487,0.207-0.984,0.409-1.504,0.409
		c-0.826,0-1.476-0.278-2.05-0.819c-0.574-0.542-0.82-1.241-0.82-2.188c0-0.47,0.12-0.956,0.41-1.366
		c0.295-0.404,0.65-0.776,1.093-1.093c0.437-0.313,0.962-0.596,1.503-0.82c0.535-0.229,1.033-0.432,1.503-0.547L404.738,565.136
		L404.738,565.136z M403.234,587.001v9.293l-0.546-0.684l-0.819-0.956c-0.356-0.302-0.771-0.46-1.23-0.684
		c-0.459-0.224-0.984-0.409-1.503-0.409c-0.968,0-1.798,0.328-2.597,0.819c-0.798,0.492-1.486,1.099-2.05,1.913
		c-0.558,0.804-1.06,1.738-1.366,2.733c-0.306,1-0.41,1.995-0.41,3.007c0,1.093,0.169,2.164,0.41,3.279
		c0.235,1.109,0.574,2.115,1.093,3.006c0.519,0.887,1.104,1.635,1.913,2.188c0.803,0.552,1.836,0.819,3.006,0.819
		c0.498,0,1.022-0.175,1.503-0.409c0.486-0.236,0.836-0.504,1.23-0.82c0.393-0.313,0.71-0.64,0.955-0.957l0.547-0.684v2.461h2.188
		v-23.915L403.234,587.001L403.234,587.001z M578.838,587.001v23.505c0.207,0.05,0.48,0.187,0.957,0.273
		c0.469,0.093,0.961,0.187,1.502,0.273c0.541,0.093,1.109,0.077,1.641,0.136c0.525,0.055,1.033,0.137,1.367,0.137
		c1.213,0,2.219-0.257,3.143-0.819c0.918-0.558,1.699-1.296,2.322-2.187c0.635-0.886,1.055-1.902,1.367-3.007
		c0.313-1.099,0.547-2.181,0.547-3.279c0-0.94-0.176-2.007-0.41-3.007c-0.234-0.994-0.58-1.781-1.094-2.596
		c-0.52-0.805-1.234-1.525-2.049-2.051c-0.805-0.529-1.723-0.819-2.871-0.819c-0.514,0-1.037,0.175-1.502,0.409
		c-0.477,0.24-0.859,0.509-1.23,0.82l-0.957,0.957l-0.408,0.547v-9.293H578.838L578.838,587.001z M486.731,587.822
		c-0.448,0-0.804,0.246-1.093,0.547c-0.295,0.301-0.41,0.661-0.41,1.093c0,0.421,0.115,0.788,0.41,1.094
		c0.289,0.306,0.645,0.409,1.093,0.409s0.787-0.104,1.093-0.409c0.301-0.306,0.547-0.673,0.547-1.094
		c0-0.431-0.246-0.792-0.547-1.093C487.519,588.068,487.18,587.822,486.731,587.822z M492.471,587.822
		c-0.447,0-0.803,0.246-1.093,0.547s-0.409,0.661-0.409,1.093c0,0.421,0.119,0.788,0.409,1.094s0.646,0.409,1.093,0.409
		c0.454,0,0.93-0.104,1.23-0.409s0.41-0.673,0.41-1.094c0-0.431-0.109-0.792-0.41-1.093S492.925,587.822,492.471,587.822z
		 M359.642,588.369v22.548h5.74c1.055,0,1.93-0.114,2.87-0.409c0.946-0.291,1.892-0.81,2.597-1.367
		c0.71-0.547,1.235-1.104,1.64-1.913c0.405-0.81,0.547-1.722,0.547-2.733c0-0.699-0.153-1.432-0.41-2.049
		c-0.263-0.618-0.52-1.165-0.957-1.641c-0.442-0.471-0.929-0.793-1.503-1.094c-0.568-0.311-1.279-0.568-1.913-0.683
		c0.454-0.137,1.022-0.383,1.503-0.684c0.487-0.301,0.826-0.65,1.23-1.093c0.405-0.438,0.82-0.957,1.093-1.504
		c0.268-0.552,0.41-1.033,0.41-1.64c0-0.968-0.175-1.886-0.546-2.597c-0.372-0.705-0.886-1.316-1.503-1.776
		c-0.618-0.459-1.367-0.727-2.187-0.956c-0.82-0.225-1.585-0.41-2.459-0.41H359.642L359.642,588.369z M454.48,588.369l5.193,22.548
		h2.732l4.783-19.405l4.92,19.405h2.732l5.193-22.548h-2.459l-4.1,19.404l-4.783-19.404h-2.733l-4.783,19.404l-4.1-19.404H454.48z
		 M514.063,589.461v4.51h-2.732v1.913h2.732v11.752c0,0.477,0.147,0.919,0.273,1.367c0.121,0.453,0.268,0.886,0.547,1.23
		c0.284,0.35,0.629,0.617,1.094,0.819c0.459,0.202,1.104,0.273,1.775,0.273l0.684-0.136l0.82-0.137l0.684-0.137l0.409-0.137
		l-0.683-1.913c-0.137,0.088-0.438,0.153-0.82,0.273c-0.383,0.126-0.64,0.273-0.957,0.273c-0.52,0-0.875-0.246-1.094-0.684
		c-0.207-0.437-0.409-0.896-0.409-1.366v-11.479h3.417v-1.913h-3.417v-4.51L514.063,589.461L514.063,589.461z M525.678,589.461v4.51
		h-2.869v1.913h2.869v11.752c0,0.477,0.01,0.919,0.137,1.367c0.127,0.453,0.273,0.886,0.547,1.23
		c0.285,0.35,0.635,0.617,1.094,0.819c0.465,0.202,1.104,0.273,1.776,0.273l0.683-0.136l0.82-0.137l0.684-0.137l0.41-0.137
		l-0.684-1.913c-0.137,0.088-0.301,0.153-0.684,0.273c-0.383,0.126-0.775,0.273-1.093,0.273c-0.514,0-0.88-0.246-1.093-0.684
		c-0.213-0.437-0.273-0.896-0.273-1.366v-11.479h3.279v-1.913h-3.279v-4.51L525.678,589.461L525.678,589.461z M362.102,590.418h3.69
		c1.257,0,2.219,0.278,3.006,0.956c0.782,0.667,1.229,1.591,1.229,2.733c0,0.585-0.164,1.143-0.41,1.64
		c-0.246,0.492-0.552,1.012-0.957,1.367c-0.404,0.36-0.853,0.617-1.367,0.82c-0.514,0.201-1.077,0.272-1.64,0.272h-3.553V590.418
		L362.102,590.418z M382.463,593.562c-0.585,0-1.203,0.136-1.777,0.272c-0.574,0.137-1.033,0.235-1.503,0.41
		c-0.47,0.18-0.891,0.388-1.23,0.546l-0.683,0.273l0.683,1.914l0.683-0.41c0.323-0.175,0.689-0.377,1.093-0.547
		c0.405-0.17,0.782-0.273,1.23-0.41c0.454-0.136,0.875-0.272,1.23-0.272c1.213,0,2.143,0.47,2.733,1.229
		c0.596,0.749,0.82,1.635,0.82,2.733v1.093l-3.28,0.82c-0.656,0.137-1.296,0.371-2.05,0.684c-0.749,0.316-1.411,0.645-2.05,1.093
		c-0.64,0.448-1.23,1.033-1.64,1.64c-0.42,0.607-0.683,1.191-0.683,1.914c0,1.503,0.552,2.722,1.503,3.553
		c0.957,0.83,2.208,1.23,3.69,1.23c0.628,0,1.224-0.176,1.776-0.41c0.552-0.235,0.94-0.503,1.367-0.82
		c0.426-0.307,0.836-0.64,1.093-0.957l0.41-0.683v2.46h2.187v-11.753c0-1.842-0.481-3.143-1.503-4.1
		C385.541,594.114,384.174,593.562,382.463,593.562L382.463,593.562z M416.08,593.562c-1.033,0-1.962,0.262-2.732,0.819
		c-0.776,0.563-1.525,1.345-2.051,2.187c-0.523,0.842-0.824,1.738-1.092,2.732c-0.269,0.99-0.41,1.902-0.41,2.734
		c0,1.055,0.07,2.049,0.273,3.143c0.201,1.088,0.59,2.099,1.093,3.006c0.503,0.913,1.197,1.75,2.05,2.323
		c0.854,0.569,1.951,0.82,3.279,0.82c0.629,0,1.203-0.04,1.777-0.137c0.574-0.104,1.043-0.272,1.503-0.409
		c0.459-0.132,0.901-0.279,1.229-0.41l0.684-0.273L421,608.184l-0.82,0.409c-0.295,0.154-0.563,0.279-0.956,0.41
		c-0.394,0.143-0.771,0.164-1.229,0.273c-0.459,0.099-1.027,0.137-1.504,0.137c-0.787,0-1.355-0.109-1.912-0.547
		c-0.563-0.438-1.148-1.109-1.504-1.776c-0.361-0.656-0.514-1.284-0.684-2.05c-0.169-0.76-0.273-1.514-0.273-2.187h10.113v-0.819
		c0-0.902-0.197-1.881-0.41-2.871c-0.213-0.988-0.47-1.896-0.957-2.732c-0.48-0.831-1.125-1.509-1.912-2.05
		C418.164,593.845,417.223,593.562,416.08,593.562L416.08,593.562z M433.846,593.562c-0.585,0-1.126,0.158-1.64,0.409
		c-0.515,0.245-1.099,0.514-1.503,0.819c-0.4,0.317-0.705,0.65-0.957,0.957l-0.41,0.547v-2.323h-2.186v16.945h2.322v-12.162
		l0.41-0.957l0.82-0.956c0.371-0.35,0.879-0.711,1.366-0.957c0.481-0.24,0.983-0.41,1.503-0.41c0.541,0,0.951,0.17,1.367,0.41
		c0.415,0.246,0.824,0.563,1.093,0.957c0.273,0.393,0.399,0.885,0.546,1.366c0.148,0.486,0.273,0.919,0.273,1.366v11.343h2.324
		V599.3c0-0.699-0.191-1.366-0.41-2.049c-0.225-0.689-0.514-1.378-0.957-1.914c-0.432-0.541-0.967-0.901-1.64-1.229
		C435.491,593.785,434.736,593.561,433.846,593.562L433.846,593.562z M507.23,593.562c-0.586,0-1.182,0.152-1.641,0.409
		c-0.459,0.24-0.891,0.497-1.229,0.819l-0.684,0.957l-0.409,0.547v-2.323h-2.188v16.945h2.324v-12.162l0.273-0.684l0.819-1.093
		c0.312-0.34,0.694-0.559,1.093-0.82c0.41-0.252,0.781-0.41,1.23-0.41l0.684,0.137l0.683,0.273l0.683-2.05l-0.683-0.409
		L507.23,593.562L507.23,593.562z M541.258,593.562c-1.028,0-1.957,0.262-2.734,0.819c-0.775,0.563-1.383,1.345-1.912,2.187
		c-0.525,0.842-0.963,1.738-1.23,2.732c-0.273,0.99-0.41,1.902-0.41,2.734c0,1.055,0.209,2.049,0.41,3.143
		c0.208,1.088,0.453,2.099,0.957,3.006c0.502,0.913,1.197,1.75,2.049,2.323c0.854,0.569,1.952,0.82,3.28,0.82
		c0.629,0,1.202-0.04,1.776-0.137c0.574-0.104,1.176-0.272,1.641-0.409c0.453-0.132,0.771-0.279,1.093-0.41l0.684-0.273
		l-0.684-1.913l-0.683,0.409c-0.296,0.154-0.7,0.279-1.094,0.41c-0.389,0.143-0.771,0.164-1.23,0.273
		c-0.459,0.099-0.891,0.137-1.366,0.137c-0.782,0-1.487-0.109-2.05-0.547s-1-1.109-1.367-1.776c-0.359-0.656-0.65-1.284-0.819-2.05
		c-0.169-0.76-0.273-1.514-0.273-2.187h10.112v-0.819c0-0.902-0.064-1.881-0.273-2.871c-0.219-0.988-0.605-1.896-1.093-2.732
		c-0.481-0.831-1.126-1.509-1.913-2.05C543.34,593.845,542.404,593.562,541.258,593.562L541.258,593.562z M558.613,593.562
		c-0.629,0-1.139,0.158-1.641,0.409c-0.508,0.245-1.018,0.497-1.367,0.819l-0.818,0.957l-0.41,0.547v-2.323h-2.188v16.945h2.324
		v-12.162l0.408-0.957l0.684-0.956c0.346-0.35,0.777-0.711,1.23-0.957c0.459-0.24,0.963-0.41,1.504-0.41
		c0.605,0,1.109,0.176,1.502,0.41c0.395,0.234,0.717,0.574,0.957,0.957c0.234,0.383,0.449,0.743,0.547,1.229
		c0.098,0.481,0.137,1.006,0.137,1.503v11.343h2.322v-12.436l0.273-0.956l0.82-0.957c0.328-0.301,0.766-0.471,1.23-0.684
		c0.459-0.213,0.918-0.41,1.502-0.41c0.564,0,1.1,0.176,1.504,0.41s0.717,0.574,0.957,0.957c0.229,0.383,0.426,0.743,0.547,1.229
		c0.104,0.481,0.137,1.006,0.137,1.503v11.343h2.322V599.3c0-0.699-0.104-1.366-0.273-2.049c-0.164-0.689-0.42-1.378-0.82-1.914
		c-0.404-0.541-0.979-0.901-1.639-1.229c-0.662-0.323-1.492-0.547-2.461-0.547c-0.672,0-1.23,0.159-1.775,0.41
		c-0.553,0.245-1.105,0.514-1.504,0.819c-0.395,0.317-0.586,0.65-0.82,0.957l-0.547,0.547l-0.41-0.684l-0.818-0.957
		c-0.355-0.301-0.814-0.459-1.367-0.683c-0.553-0.225-1.219-0.41-2.051-0.41L558.613,593.562z M601.387,593.562
		c-1.033,0-1.963,0.262-2.734,0.819c-0.775,0.563-1.383,1.345-1.912,2.187c-0.525,0.842-0.969,1.738-1.23,2.732
		c-0.279,0.99-0.41,1.902-0.41,2.734c0,1.055,0.203,2.049,0.41,3.143c0.201,1.088,0.453,2.099,0.957,3.006
		c0.508,0.913,1.197,1.75,2.049,2.323c0.854,0.569,1.947,0.82,3.279,0.82c0.623,0,1.197-0.04,1.777-0.137
		c0.568-0.104,1.182-0.272,1.641-0.409c0.465-0.132,0.764-0.279,1.092-0.41l0.684-0.273l-0.684-1.913l-0.682,0.409
		c-0.297,0.154-0.57,0.279-0.957,0.41c-0.395,0.143-0.908,0.164-1.367,0.273c-0.453,0.099-0.896,0.137-1.367,0.137
		c-0.781,0-1.492-0.109-2.049-0.547c-0.568-0.438-1-1.109-1.367-1.776c-0.355-0.656-0.65-1.284-0.82-2.05
		c-0.168-0.76-0.273-1.514-0.273-2.187h10.113v-0.819c0-0.902-0.055-1.881-0.273-2.871c-0.213-0.988-0.611-1.896-1.094-2.732
		c-0.48-0.831-0.988-1.509-1.775-2.05c-0.781-0.536-1.865-0.819-3.008-0.819H601.387z M618.467,593.562
		c-0.584,0-1.18,0.152-1.639,0.409c-0.465,0.24-0.76,0.497-1.094,0.819l-0.82,0.957l-0.408,0.547v-2.323h-2.188v16.945h2.322
		v-12.162l0.41-0.684l0.684-1.093c0.313-0.34,0.689-0.559,1.094-0.82c0.404-0.252,0.781-0.41,1.23-0.41l0.818,0.137l0.547,0.273
		l0.684-2.05l-0.684-0.409L618.467,593.562L618.467,593.562z M628.58,593.562c-0.803,0-1.48,0.213-2.186,0.546
		c-0.705,0.339-1.383,0.814-1.914,1.366c-0.525,0.559-0.924,1.083-1.23,1.777c-0.305,0.699-0.408,1.465-0.408,2.186
		c0,0.969,0.025,1.777,0.273,2.461c0.244,0.688,0.59,1.312,0.955,1.775c0.373,0.46,0.826,0.7,1.23,0.957s0.775,0.568,1.094,0.684
		l-0.684,0.137l-0.82,0.547l-0.547,0.683l-0.273,0.819c0,0.405,0.088,0.799,0.273,1.094l0.684,0.684l0.684,0.41l0.684,0.136
		c-0.313,0.022-0.738,0.219-1.23,0.409c-0.498,0.187-0.896,0.351-1.367,0.684c-0.469,0.34-0.885,0.858-1.229,1.367
		c-0.35,0.502-0.547,0.989-0.547,1.64c0,0.673,0.076,1.345,0.41,1.913c0.338,0.574,0.928,1.082,1.502,1.504
		c0.59,0.415,1.23,0.715,2.051,0.956c0.824,0.245,1.656,0.409,2.596,0.409c1.061,0,2-0.109,2.869-0.409
		c0.859-0.301,1.701-0.737,2.324-1.229c0.617-0.492,1.021-1.056,1.367-1.641c0.332-0.584,0.545-1.191,0.545-1.776
		c0-0.765-0.164-1.46-0.545-2.05c-0.383-0.596-0.99-1.088-1.641-1.503c-0.656-0.415-1.334-0.738-2.188-0.957
		c-0.852-0.208-1.809-0.272-2.732-0.272c-0.717,0-1.313-0.23-1.777-0.547c-0.453-0.317-0.682-0.602-0.682-1.094l0.273-0.684
		l0.682-0.409l0.82-0.409l0.684-0.137c0.83,0,1.607-0.088,2.324-0.41c0.715-0.328,1.404-0.804,1.912-1.367
		c0.525-0.563,0.939-1.295,1.23-2.049c0.289-0.755,0.41-1.465,0.41-2.323c0-0.47-0.023-0.951-0.137-1.366
		c-0.109-0.422-0.264-0.766-0.41-1.094l-0.41-0.82l-0.41-0.547h2.734v-1.639h-4.783c-0.203-0.072-0.498-0.176-0.957-0.273
		C629.619,593.589,629.1,593.562,628.58,593.562L628.58,593.562z M483.725,593.971v11.616c0,0.742,0.072,1.492,0.273,2.186
		c0.203,0.7,0.531,1.252,0.957,1.777c0.426,0.529,0.984,0.901,1.641,1.229c0.666,0.328,1.393,0.547,2.322,0.547
		c0.602,0,1.137-0.164,1.641-0.41c0.502-0.246,0.983-0.503,1.365-0.819c0.383-0.313,0.717-0.641,0.957-0.957l0.41-0.684v2.46h2.187
		v-16.945h-2.323v12.163l-0.273,0.819l-0.957,1.093c-0.354,0.361-0.76,0.678-1.229,0.957c-0.471,0.284-0.969,0.41-1.504,0.41
		c-0.585,0-1.099-0.176-1.504-0.41c-0.404-0.235-0.705-0.448-0.956-0.82c-0.245-0.371-0.427-0.885-0.546-1.366
		c-0.127-0.486-0.137-0.989-0.137-1.503v-11.343H483.725L483.725,593.971z M416.08,595.337c0.695,0,1.279,0.263,1.777,0.684
		c0.492,0.416,0.924,0.924,1.229,1.503c0.302,0.585,0.536,1.241,0.684,1.913c0.142,0.673,0.136,1.285,0.136,1.777h-7.789
		c0-0.559,0.104-1.246,0.273-1.914c0.17-0.655,0.367-1.191,0.684-1.776c0.312-0.59,0.732-1.109,1.229-1.503
		C414.796,595.627,415.43,595.337,416.08,595.337L416.08,595.337z M541.258,595.337c0.693,0,1.284,0.263,1.775,0.684
		c0.498,0.416,0.924,0.924,1.23,1.503c0.301,0.585,0.535,1.241,0.684,1.913c0.143,0.673,0.273,1.285,0.273,1.777h-7.789
		c0-0.559,0.109-1.246,0.272-1.914c0.169-0.655,0.372-1.191,0.684-1.776c0.317-0.59,0.732-1.109,1.229-1.503
		C540.109,595.627,540.602,595.337,541.258,595.337L541.258,595.337z M601.521,595.337c0.701,0,1.279,0.263,1.777,0.684
		c0.498,0.416,0.787,0.924,1.094,1.503c0.301,0.585,0.535,1.241,0.684,1.913c0.146,0.673,0.273,1.285,0.273,1.777h-7.791
		c0-0.559,0.109-1.246,0.273-1.914c0.17-0.655,0.373-1.191,0.684-1.776c0.318-0.59,0.732-1.109,1.23-1.503
		c0.492-0.394,1.125-0.684,1.777-0.684H601.521z M628.58,595.337c1.082,0,1.984,0.345,2.596,1.094
		c0.625,0.754,0.957,1.771,0.957,3.006c0,0.514-0.152,0.973-0.273,1.504c-0.125,0.524-0.273,1.071-0.547,1.503
		c-0.283,0.421-0.654,0.819-1.092,1.093c-0.438,0.285-1.012,0.41-1.641,0.41c-0.645,0-1.197-0.175-1.641-0.41
		c-0.436-0.234-0.682-0.552-0.955-0.956c-0.268-0.405-0.564-0.814-0.684-1.366c-0.127-0.547-0.137-1.17-0.137-1.777
		c0-0.541,0.115-1.011,0.273-1.503c0.152-0.497,0.389-0.983,0.684-1.366s0.66-0.732,1.094-0.957
		C627.65,595.386,628.045,595.337,628.58,595.337L628.58,595.337z M399.409,595.474c0.541,0,1.049,0.125,1.503,0.41
		c0.447,0.295,0.76,0.71,1.093,1.093c0.339,0.383,0.618,0.716,0.82,1.093l0.409,0.82v7.243l-0.409,0.819l-0.82,1.094
		c-0.339,0.361-0.765,0.688-1.229,0.957c-0.459,0.273-0.869,0.409-1.367,0.409c-0.787,0-1.509-0.214-2.05-0.683
		c-0.536-0.471-0.891-1.056-1.23-1.777c-0.333-0.716-0.678-1.585-0.82-2.459c-0.147-0.875-0.137-1.674-0.137-2.461
		c0-0.901,0.071-1.809,0.273-2.596c0.202-0.793,0.454-1.46,0.82-2.051c0.372-0.601,0.847-1.032,1.367-1.365
		C398.146,595.675,398.758,595.474,399.409,595.474L399.409,595.474z M584.986,595.474c0.738,0,1.389,0.295,1.914,0.684
		c0.525,0.393,1.021,0.869,1.367,1.503c0.35,0.623,0.514,1.273,0.682,2.05c0.17,0.771,0.273,1.585,0.273,2.323
		c0,0.787-0.049,1.585-0.273,2.46c-0.217,0.875-0.666,1.749-1.092,2.459c-0.428,0.728-0.891,1.307-1.504,1.777
		c-0.623,0.476-1.258,0.684-2.049,0.684l-0.82-0.137h-0.957l-0.82-0.137l-0.547-0.137v-10.249l0.41-0.819l0.82-1.094
		c0.361-0.345,0.797-0.684,1.23-0.957C584.063,595.617,584.539,595.475,584.986,595.474L584.986,595.474z M444.232,599.574v2.187
		h7.105v-2.187H444.232z M362.102,600.12h3.69c1.416,0,2.525,0.339,3.416,1.094c0.886,0.748,1.367,1.842,1.367,3.143
		c0,0.672-0.164,1.213-0.41,1.776s-0.65,1.104-1.093,1.503c-0.438,0.404-0.918,0.732-1.503,0.957
		c-0.585,0.224-1.126,0.273-1.776,0.273h-3.689L362.102,600.12L362.102,600.12z M385.743,602.17v4.1l-0.547,1.093
		c-0.268,0.377-0.563,0.629-0.957,0.957c-0.394,0.322-0.885,0.607-1.366,0.82c-0.487,0.213-0.984,0.409-1.503,0.409
		c-0.831,0-1.476-0.278-2.05-0.819c-0.574-0.536-0.82-1.378-0.82-2.324c0-0.475,0.12-0.83,0.41-1.229
		c0.295-0.404,0.656-0.781,1.093-1.093c0.442-0.317,0.962-0.591,1.503-0.82c0.536-0.219,1.033-0.432,1.503-0.547L385.743,602.17
		L385.743,602.17z M628.58,610.643c1.35,0,2.531,0.251,3.416,0.819c0.891,0.574,1.367,1.307,1.367,2.188
		c0,0.398-0.176,0.842-0.41,1.229c-0.24,0.394-0.535,0.792-0.957,1.093c-0.432,0.307-0.939,0.486-1.502,0.684
		c-0.559,0.186-1.236,0.273-1.914,0.273c-0.645,0-1.229-0.094-1.775-0.273c-0.537-0.175-0.984-0.383-1.367-0.684
		c-0.377-0.306-0.607-0.699-0.82-1.093c-0.207-0.389-0.41-0.81-0.41-1.229c0-0.432,0.164-0.864,0.41-1.23
		c0.246-0.371,0.553-0.688,0.957-0.957c0.398-0.268,0.842-0.388,1.367-0.547C627.471,610.757,628.023,610.643,628.58,610.643
		L628.58,610.643z"/>
	<path id="path242" fill="#474747" d="M362.648,441.19c-0.973,0-1.744,0.191-2.323,0.82c-0.574,0.612-0.82,1.481-0.82,2.46v81.993
		c0,0.974,0.246,1.7,0.82,2.323c0.568,0.612,1.35,0.957,2.323,0.957h22.275c6.111,0,11.572-1.109,16.536-3.416
		c4.974-2.297,9.26-5.587,12.709-9.703c3.454-4.121,6.154-8.953,8.063-14.622c1.902-5.663,2.732-11.807,2.732-18.449
		c0-6.368-0.912-12.184-2.869-17.355c-1.946-5.182-4.695-9.669-8.199-13.392c-3.493-3.723-7.74-6.576-12.709-8.609
		c-4.958-2.039-10.375-3.006-16.399-3.006H362.648L362.648,441.19z M443.275,441.19c-0.968,0-1.744,0.191-2.324,0.82
		c-0.568,0.612-0.956,1.481-0.956,2.46v81.993c0,0.974,0.389,1.7,0.956,2.323c0.58,0.612,1.356,0.957,2.324,0.957h9.156
		c0.967,0,1.716-0.34,2.322-0.957c0.617-0.617,0.957-1.35,0.957-2.323v-36.487h30.611v36.487c0,0.974,0.388,1.706,0.956,2.323
		s1.214,0.957,2.187,0.957h9.156c0.979,0,1.842-0.345,2.459-0.957c0.618-0.623,0.957-1.35,0.957-2.323V444.47
		c0-0.979-0.339-1.848-0.957-2.46c-0.617-0.628-1.48-0.82-2.459-0.82h-9.156c-0.973,0-1.618,0.191-2.187,0.82
		c-0.569,0.612-0.956,1.481-0.956,2.46v32.524h-30.611V444.47c0-0.979-0.34-1.848-0.957-2.46c-0.606-0.628-1.355-0.82-2.322-0.82
		H443.275z M375.084,453.489h9.976c3.728,0,7.046,0.776,9.976,2.323c2.924,1.558,5.439,3.63,7.516,6.286
		c2.083,2.657,3.712,5.887,4.782,9.566c1.061,3.679,1.504,7.636,1.504,11.889c0,4.963-0.48,9.396-1.641,13.529
		c-1.152,4.111-2.885,7.778-5.056,10.796c-2.175,3.012-4.772,5.285-7.79,6.969c-3.022,1.684-6.395,2.598-10.112,2.598h-9.156
		V453.489L375.084,453.489z"/>
</g>
</svg>
